<svg width="48" xmlns="http://www.w3.org/2000/svg" height="48" id="screenshot-a7f8823f-02a5-809a-8005-fa390865f808" viewBox="1997 133 88.21 106.514" xmlns:xlink="http://www.w3.org/1999/xlink" fill="none" version="1.1"><g id="shape-a7f8823f-02a5-809a-8005-fa390865f808"><defs><radialGradient id="fill-color-gradient-render-1-0" cx="0.5" cy="0.5" r="0.5" gradientTransform="matrix(-0.981051, 0.047145, 0.047260, -0.882418, 0.966896, 0.917637)"><stop offset="0" stop-color="#6c92f6" stop-opacity="1"/><stop offset="1" stop-color="#124983" stop-opacity="0"/></radialGradient><pattern patternUnits="userSpaceOnUse" x="2014.2550196750108" y="142.86160136724334" width="53.69954575931888" height="86.7905599891165" patternTransform="matrix(0.928171, -0.372154, 0.372935, 0.927858, 77.148620, 773.041757)" id="fill-0-render-1"><g><rect width="53.69954575931888" height="86.7905599891165" style="fill: url(&quot;#fill-color-gradient-render-1-0&quot;);"/></g></pattern></defs><g class="fills" id="fills-a7f8823f-02a5-809a-8005-fa390865f808"><path d="M2038.399169921875,233.96783447265625C2041.7659912109375,230.19241333007812,2042.61865234375,214.08518981933594,2032.1153564453125,200.1056365966797C2021.6121826171875,186.1260986328125,2052.070068359375,228.48638916015625,2055.017333984375,223.6665496826172C2057.96435546875,218.8467254638672,2058.613525390625,193.11927795410156,2054.831298828125,189.78492736816406C2054.831298828125,189.78492736816406,2073.522216796875,221.09779357910156,2075.205810546875,219.2100830078125C2076.88916015625,217.32237243652344,2078.165771484375,196.1942138671875,2064.51220703125,177.4142608642578C2050.8583984375,158.6343231201172,2047.0673828125,167.43067932128906,2047.0673828125,167.43067932128906C2047.0673828125,167.43067932128906,2041.5843505859375,190.2454376220703,2044.73486328125,195.04583740234375C2047.8853759765625,199.8462371826172,2026.8746337890625,177.95249938964844,2026.8746337890625,177.95249938964844C2026.8746337890625,177.95249938964844,2015.9473876953125,168.993896484375,2017.1937255859375,190.3231658935547C2018.4400634765625,211.65243530273438,2035.0322265625,237.74325561523438,2038.399169921875,233.96783447265625M2009.2308349609375,152.28334045410156M2054.831298828125,189.78492736816406C2051.048828125,186.45059204101562,2073.1025390625,220.0533905029297,2075.205810546875,219.2100830078125" fill="url(#fill-0-render-1)"/></g><g id="strokes-635c2db0-4785-806e-8006-738689acee83-a7f8823f-02a5-809a-8005-fa390865f808" class="strokes"><g class="stroke-shape"><path d="M2038.399169921875,233.96783447265625C2041.7659912109375,230.19241333007812,2042.61865234375,214.08518981933594,2032.1153564453125,200.1056365966797C2021.6121826171875,186.1260986328125,2052.070068359375,228.48638916015625,2055.017333984375,223.6665496826172C2057.96435546875,218.8467254638672,2058.613525390625,193.11927795410156,2054.831298828125,189.78492736816406C2054.831298828125,189.78492736816406,2073.522216796875,221.09779357910156,2075.205810546875,219.2100830078125C2076.88916015625,217.32237243652344,2078.165771484375,196.1942138671875,2064.51220703125,177.4142608642578C2050.8583984375,158.6343231201172,2047.0673828125,167.43067932128906,2047.0673828125,167.43067932128906C2047.0673828125,167.43067932128906,2041.5843505859375,190.2454376220703,2044.73486328125,195.04583740234375C2047.8853759765625,199.8462371826172,2026.8746337890625,177.95249938964844,2026.8746337890625,177.95249938964844C2026.8746337890625,177.95249938964844,2015.9473876953125,168.993896484375,2017.1937255859375,190.3231658935547C2018.4400634765625,211.65243530273438,2035.0322265625,237.74325561523438,2038.399169921875,233.96783447265625M2009.2308349609375,152.28334045410156M2054.831298828125,189.78492736816406C2051.048828125,186.45059204101562,2073.1025390625,220.0533905029297,2075.205810546875,219.2100830078125" style="fill: none; stroke-width: 1; stroke: rgb(0, 0, 0); stroke-opacity: 1;"/></g></g></g></svg>