<svg width="158" xmlns="http://www.w3.org/2000/svg" height="113" id="screenshot-0c08840e-90a8-80c4-8005-fa4cf2175b80" viewBox="0 0 158 113" xmlns:xlink="http://www.w3.org/1999/xlink" fill="none" version="1.1"><style>/* latin */
@font-face {
  font-family: 'Chewy';
  font-style: normal;
  font-weight: 400;
  font-display: block;
  src: url(https://design.penpot.app/internal/gfonts/font/chewy/v18/uK_94ruUb-k-wn52KjI.woff2) format('woff2');
  unicode-range: U+0000-00FF, U+0131, U+0152-0153, U+02BB-02BC, U+02C6, U+02DA, U+02DC, U+0304, U+0308, U+0329, U+2000-206F, U+20AC, U+2122, U+2191, U+2193, U+2212, U+2215, U+FEFF, U+FFFD;
}
</style><g id="shape-0c08840e-90a8-80c4-8005-fa4cf2175b80"><g class="frame-container-wrapper"><g class="frame-container-blur"><g class="frame-container-shadows"><g fill="none"><g class="fills" id="fills-0c08840e-90a8-80c4-8005-fa4cf2175b80"><path d="M0,0 h158 a0,0 0 0 1 0,0 v38 a75,75 0 0 1 -75,75 h-8 a75,75 0 0 1 -75,-75 v-38 a0,0 0 0 1 0,0 z" x="0" y="0" width="158" height="113" transform="matrix(1.000000, 0.000000, 0.000000, 1.000000, 0.000000, 0.000000)" class="frame-background" style="fill: rgb(255, 255, 255); fill-opacity: 1;"/></g><g class="frame-children"><g id="shape-0c08840e-90a8-80c4-8005-fa4cf2175b81"><g transform="matrix(1.000000, 0.000000, 0.000000, 1.000000, 0.000000, 0.000000)" class="text-container" x="115.34904593210968" y="37.509955987487444" width="42.650954067890325" height="75.49004401251256" rx="0" ry="0"><defs><pattern patternUnits="objectBoundingBox" width="21.662500381469727" height="17.600000381469727" id="fill-0-render-2-0"><g><rect width="21.662500381469727" height="17.600000381469727" style="fill: rgb(0, 0, 0); fill-opacity: 1;"/></g></pattern></defs><g class="fills" id="fills-0c08840e-90a8-80c4-8005-fa4cf2175b81"><text x="115.34904593210968" y="83.6474567504269" dominant-baseline="ideographic" textLength="21.662500381469727" lengthAdjust="spacingAndGlyphs" style="text-transform: none; font-family: Chewy; letter-spacing: 3px; font-style: normal; font-weight: 400; white-space: pre; font-size: 14px; text-decoration: none solid rgb(0, 0, 0); direction: ltr; fill: rgb(0, 0, 0); fill-opacity: 1;">.nl</text></g></g></g><g id="shape-0c08840e-90a8-80c4-8005-fa4cf2175b82"><defs><radialGradient id="fill-color-gradient-render-3-0" cx="0.5" cy="0.5" r="0.5" gradientTransform="matrix(-0.980758, 0.048736, 0.047140, -0.880602, 0.966809, 0.915933)"><stop offset="0" stop-color="#6c92f6" stop-opacity="1"/><stop offset="1" stop-color="#124983" stop-opacity="0"/></radialGradient><pattern patternUnits="userSpaceOnUse" x="14.187498240861334" y="7.093149771640512" width="53.83458862761731" height="88.13852196813478" patternTransform="matrix(0.925843, -0.377909, 0.367231, 0.930130, -15.740219, 19.108598)" id="fill-0-render-3"><g><rect width="53.83458862761731" height="88.13852196813478" style="fill: url(&quot;#fill-color-gradient-render-3-0&quot;);"/></g></pattern></defs><g class="fills" id="fills-0c08840e-90a8-80c4-8005-fa4cf2175b82"><path d="M38.39912796020508,99.73302459716797C41.76603698730469,95.88957977294922,42.61859130859375,79.49212646484375,32.11540985107422,65.26069641113281C21.612232208251953,51.02927017211914,52.070159912109375,94.1528091430664,55.01728057861328,89.24613189697266C57.96440887451172,84.33946228027344,58.61357879638672,58.14844512939453,54.831214904785156,54.7540283203125C54.831214904785156,54.7540283203125,73.52228546142578,86.63108825683594,75.20574188232422,84.70936584472656C76.88919830322266,82.78764343261719,78.16586303710938,61.27878952026367,64.51216125488281,42.160465240478516C50.85845947265625,23.042144775390625,47.067440032958984,31.99699592590332,47.067440032958984,31.99699592590332C47.067440032958984,31.99699592590332,41.58430099487305,55.22283935546875,44.73482131958008,60.1097297668457C47.885345458984375,64.99662017822266,26.874649047851562,42.708396911621094,26.874649047851562,42.708396911621094C26.874649047851562,42.708396911621094,15.947357177734375,33.588375091552734,17.193702697753906,55.301963806152344C18.440052032470703,77.01554870605469,35.03221893310547,103.57646942138672,38.39912796020508,99.73302459716797M9.230865478515625,16.57672882080078M54.831214904785156,54.7540283203125C51.048858642578125,51.35961151123047,73.10250854492188,85.56785583496094,75.20574188232422,84.70936584472656" fill="url(#fill-0-render-3)"/></g><g id="strokes-d3193722-210d-8014-8006-7464763e5e70-0c08840e-90a8-80c4-8005-fa4cf2175b82" class="strokes"><g class="stroke-shape"><path d="M38.39912796020508,99.73302459716797C41.76603698730469,95.88957977294922,42.61859130859375,79.49212646484375,32.11540985107422,65.26069641113281C21.612232208251953,51.02927017211914,52.070159912109375,94.1528091430664,55.01728057861328,89.24613189697266C57.96440887451172,84.33946228027344,58.61357879638672,58.14844512939453,54.831214904785156,54.7540283203125C54.831214904785156,54.7540283203125,73.52228546142578,86.63108825683594,75.20574188232422,84.70936584472656C76.88919830322266,82.78764343261719,78.16586303710938,61.27878952026367,64.51216125488281,42.160465240478516C50.85845947265625,23.042144775390625,47.067440032958984,31.99699592590332,47.067440032958984,31.99699592590332C47.067440032958984,31.99699592590332,41.58430099487305,55.22283935546875,44.73482131958008,60.1097297668457C47.885345458984375,64.99662017822266,26.874649047851562,42.708396911621094,26.874649047851562,42.708396911621094C26.874649047851562,42.708396911621094,15.947357177734375,33.588375091552734,17.193702697753906,55.301963806152344C18.440052032470703,77.01554870605469,35.03221893310547,103.57646942138672,38.39912796020508,99.73302459716797M9.230865478515625,16.57672882080078M54.831214904785156,54.7540283203125C51.048858642578125,51.35961151123047,73.10250854492188,85.56785583496094,75.20574188232422,84.70936584472656" style="fill: none; stroke-width: 1; stroke: rgb(0, 0, 0); stroke-opacity: 1;"/></g></g></g><g id="shape-0c08840e-90a8-80c4-8005-fa4cf21788b5"><defs><radialGradient id="fill-color-gradient-render-4-0" cx="0.2732658149695128" cy="0.22422095404425096" r="0.8082335793602313" gradientTransform="matrix(-0.959845, 0.280531, -0.280531, -0.959845, 0.598459, 0.362779)"><stop offset="0" stop-color="#6c92f6" stop-opacity="1"/><stop offset="1" stop-color="#124983" stop-opacity="0"/></radialGradient><pattern patternUnits="userSpaceOnUse" x="61.64043710587703" y="23.054415644665895" width="25.274639447638947" height="51.3974767744766" patternTransform="matrix(1.000000, 0.000000, 0.000000, 1.000000, 0.000000, 0.000000)" id="fill-0-render-4"><g><rect width="25.274639447638947" height="51.3974767744766" style="fill: url(&quot;#fill-color-gradient-render-4-0&quot;);"/></g></pattern></defs><g class="fills" id="fills-0c08840e-90a8-80c4-8005-fa4cf21788b5"><path d="M66.87654876708984,36.21846389770508C66.87654876708984,36.21846389770508,53.887718200683594,52.96400833129883,68.82487487792969,47.60543441772461C83.76203155517578,42.24686050415039,66.87654876708984,73.72848510742188,66.87654876708984,73.72848510742188C66.87654876708984,73.72848510742188,78.56649780273438,75.73795318603516,79.8653793334961,73.05866241455078C81.16426849365234,70.37937927246094,92.20477294921875,46.26579284667969,83.76203155517578,43.58650588989258C75.31929016113281,40.9072151184082,74.0204086303711,42.916683197021484,74.0204086303711,42.916683197021484C74.0204086303711,42.916683197021484,86.35980224609375,26.1711368560791,85.71035766601562,24.161672592163086C85.0609130859375,22.152206420898438,72.07208251953125,23.491849899291992,72.07208251953125,23.491849899291992L66.87654876708984,36.21846389770508" fill="url(#fill-0-render-4)"/></g><g id="strokes-d3193722-210d-8014-8006-7464763f17d9-0c08840e-90a8-80c4-8005-fa4cf21788b5" class="strokes"><g class="inner-stroke-shape"><defs><clipPath id="inner-stroke-render-4-0c08840e-90a8-80c4-8005-fa4cf21788b5-0"><use href="#stroke-shape-render-4-0c08840e-90a8-80c4-8005-fa4cf21788b5-0"/></clipPath><path d="M66.87654876708984,36.21846389770508C66.87654876708984,36.21846389770508,53.887718200683594,52.96400833129883,68.82487487792969,47.60543441772461C83.76203155517578,42.24686050415039,66.87654876708984,73.72848510742188,66.87654876708984,73.72848510742188C66.87654876708984,73.72848510742188,78.56649780273438,75.73795318603516,79.8653793334961,73.05866241455078C81.16426849365234,70.37937927246094,92.20477294921875,46.26579284667969,83.76203155517578,43.58650588989258C75.31929016113281,40.9072151184082,74.0204086303711,42.916683197021484,74.0204086303711,42.916683197021484C74.0204086303711,42.916683197021484,86.35980224609375,26.1711368560791,85.71035766601562,24.161672592163086C85.0609130859375,22.152206420898438,72.07208251953125,23.491849899291992,72.07208251953125,23.491849899291992L66.87654876708984,36.21846389770508" id="stroke-shape-render-4-0c08840e-90a8-80c4-8005-fa4cf21788b5-0" style="fill: none; stroke-width: 2; stroke: rgb(0, 0, 0); stroke-opacity: 1;"/></defs><use href="#stroke-shape-render-4-0c08840e-90a8-80c4-8005-fa4cf21788b5-0" clip-path="url('#inner-stroke-render-4-0c08840e-90a8-80c4-8005-fa4cf21788b5-0')"/></g></g></g><g id="shape-0c08840e-90a8-80c4-8005-fa4cf21788b6"><g class="fills" id="fills-0c08840e-90a8-80c4-8005-fa4cf21788b6"><path d="M96.39306640625,77.66423797607422"/></g><g id="strokes-d3193722-210d-8014-8006-7464763fce6e-0c08840e-90a8-80c4-8005-fa4cf21788b6" class="strokes"><g class="inner-stroke-shape"><defs><clipPath id="inner-stroke-render-5-0c08840e-90a8-80c4-8005-fa4cf21788b6-0"><use href="#stroke-shape-render-5-0c08840e-90a8-80c4-8005-fa4cf21788b6-0"/></clipPath><path d="M96.39306640625,77.66423797607422" id="stroke-shape-render-5-0c08840e-90a8-80c4-8005-fa4cf21788b6-0" style="fill: none; stroke-width: 4; stroke: rgb(0, 0, 0); stroke-opacity: 1;"/></defs><use href="#stroke-shape-render-5-0c08840e-90a8-80c4-8005-fa4cf21788b6-0" clip-path="url('#inner-stroke-render-5-0c08840e-90a8-80c4-8005-fa4cf21788b6-0')"/></g></g></g><g id="shape-0c08840e-90a8-80c4-8005-fa4cf21788b7"><defs><radialGradient id="fill-color-gradient-render-6-0" cx="0.5" cy="0.5" r="0.5" gradientTransform="matrix(-0.987829, -0.033286, -0.032196, -0.911952, 1.010012, 0.972619)"><stop offset="0" stop-color="#6c92f6" stop-opacity="1"/><stop offset="1" stop-color="#124983" stop-opacity="0"/></radialGradient><pattern patternUnits="userSpaceOnUse" x="79.73765487926535" y="21.313288985324135" width="26.909431831955843" height="55.2581249626395" patternTransform="matrix(0.935391, 0.353615, -0.343425, 0.939180, 22.829104, -29.977532)" id="fill-0-render-6"><g><rect width="26.909431831955843" height="55.2581249626395" style="fill: url(&quot;#fill-color-gradient-render-6-0&quot;);"/></g></pattern></defs><g class="fills" id="fills-0c08840e-90a8-80c4-8005-fa4cf21788b7"><path d="M88.81029510498047,49.40394592285156L83.51403045654297,73.10565948486328L78.52161407470703,72.93192291259766L88.18400573730469,23.463272094726562C88.18400573730469,23.463272094726562,104.26226043701172,20.9735164642334,110.56443786621094,26.783180236816406C116.86662292480469,32.59284591674805,101.54763793945312,42.22400665283203,101.54763793945312,42.22400665283203C101.54763793945312,42.22400665283203,92.11331176757812,40.37105178833008,93.8027114868164,49.57768249511719C95.49211120605469,58.7843132019043,97.39027404785156,76.63783264160156,97.39027404785156,76.63783264160156L88.5064468383789,73.2793960571289L88.81029510498047,49.40394592285156L88.5064468383789,73.2793960571289" fill="url(#fill-0-render-6)"/></g><g id="strokes-d3193722-210d-8014-8006-746476406ece-0c08840e-90a8-80c4-8005-fa4cf21788b7" class="strokes"><g class="stroke-shape"><path d="M88.81029510498047,49.40394592285156L83.51403045654297,73.10565948486328L78.52161407470703,72.93192291259766L88.18400573730469,23.463272094726562C88.18400573730469,23.463272094726562,104.26226043701172,20.9735164642334,110.56443786621094,26.783180236816406C116.86662292480469,32.59284591674805,101.54763793945312,42.22400665283203,101.54763793945312,42.22400665283203C101.54763793945312,42.22400665283203,92.11331176757812,40.37105178833008,93.8027114868164,49.57768249511719C95.49211120605469,58.7843132019043,97.39027404785156,76.63783264160156,97.39027404785156,76.63783264160156L88.5064468383789,73.2793960571289L88.81029510498047,49.40394592285156L88.5064468383789,73.2793960571289" style="fill: none; stroke-width: 1; stroke: rgb(0, 0, 0); stroke-opacity: 1;"/></g></g></g><g id="shape-0c08840e-90a8-80c4-8005-fa4cf21788b8"><defs><radialGradient id="fill-color-gradient-render-7-0" cx="0.5" cy="0.5" r="0.5" gradientTransform="matrix(-1.000000, 0.000000, -0.000000, -1.000000, 1.000000, 1.000000)"><stop offset="0" stop-color="#6c92f6" stop-opacity="1"/><stop offset="1" stop-color="#124983" stop-opacity="0"/></radialGradient><pattern patternUnits="userSpaceOnUse" x="91.65407144994788" y="32.691442539880285" width="47.38994896432314" height="53.00364792367898" patternTransform="matrix(1.000000, 0.000000, 0.000000, 1.000000, 0.000000, 0.000000)" id="fill-0-render-7"><g><rect width="47.38994896432314" height="53.00364792367898" style="fill: url(&quot;#fill-color-gradient-render-7-0&quot;);"/></g></pattern></defs><g class="fills" id="fills-0c08840e-90a8-80c4-8005-fa4cf21788b8"><path d="M95.21895599365234,82.09327697753906L110.66679382324219,48.47637939453125C110.66679382324219,48.47637939453125,95.21895599365234,35.269737243652344,98.78384399414062,32.8685302734375C102.34872436523438,30.46732521057129,136.8092803955078,53.27879333496094,136.8092803955078,53.27879333496094C136.8092803955078,53.27879333496094,146.31564331054688,61.68301773071289,126.1146240234375,56.8806037902832C105.91361236572266,52.078189849853516,104.7253189086914,85.6950912475586,104.7253189086914,85.6950912475586L95.21895599365234,82.09327697753906" fill="url(#fill-0-render-7)"/></g><g id="strokes-d3193722-210d-8014-8006-74647640d657-0c08840e-90a8-80c4-8005-fa4cf21788b8" class="strokes"><g class="inner-stroke-shape"><defs><clipPath id="inner-stroke-render-7-0c08840e-90a8-80c4-8005-fa4cf21788b8-0"><use href="#stroke-shape-render-7-0c08840e-90a8-80c4-8005-fa4cf21788b8-0"/></clipPath><path d="M95.21895599365234,82.09327697753906L110.66679382324219,48.47637939453125C110.66679382324219,48.47637939453125,95.21895599365234,35.269737243652344,98.78384399414062,32.8685302734375C102.34872436523438,30.46732521057129,136.8092803955078,53.27879333496094,136.8092803955078,53.27879333496094C136.8092803955078,53.27879333496094,146.31564331054688,61.68301773071289,126.1146240234375,56.8806037902832C105.91361236572266,52.078189849853516,104.7253189086914,85.6950912475586,104.7253189086914,85.6950912475586L95.21895599365234,82.09327697753906" id="stroke-shape-render-7-0c08840e-90a8-80c4-8005-fa4cf21788b8-0" style="fill: none; stroke-width: 2; stroke: rgb(0, 0, 0); stroke-opacity: 1;"/></defs><use href="#stroke-shape-render-7-0c08840e-90a8-80c4-8005-fa4cf21788b8-0" clip-path="url('#inner-stroke-render-7-0c08840e-90a8-80c4-8005-fa4cf21788b8-0')"/></g></g></g></g></g></g></g></g></g></svg>