<svg width="158" xmlns="http://www.w3.org/2000/svg" height="111" id="screenshot-5dba797b-a430-8051-8005-fb7bf149a60a" viewBox="0 0 158 111" xmlns:xlink="http://www.w3.org/1999/xlink" fill="none" version="1.1"><style>/* latin */
@font-face {
  font-family: 'Chewy';
  font-style: normal;
  font-weight: 400;
  font-display: block;
  src: url(https://design.penpot.app/internal/gfonts/font/chewy/v18/uK_94ruUb-k-wn52KjI.woff2) format('woff2');
  unicode-range: U+0000-00FF, U+0131, U+0152-0153, U+02BB-02BC, U+02C6, U+02DA, U+02DC, U+0304, U+0308, U+0329, U+2000-206F, U+20AC, U+2122, U+2191, U+2193, U+2212, U+2215, U+FEFF, U+FFFD;
}
</style><g id="shape-5dba797b-a430-8051-8005-fb7bf149a60a"><g class="frame-container-wrapper"><g class="frame-container-blur"><g class="frame-container-shadows"><g fill="none"><g class="fills" id="fills-5dba797b-a430-8051-8005-fb7bf149a60a"><rect rx="0" ry="0" x="0" y="0" width="158" height="111" transform="matrix(1.000000, 0.000000, 0.000000, 1.000000, 0.000000, 0.000000)" class="frame-background"/></g><g class="frame-children"><g id="shape-5dba797b-a430-8051-8005-fb7bf149a60b"><g transform="matrix(1.000000, 0.000000, 0.000000, 1.000000, 0.000000, 0.000000)" class="text-container" x="115.34904593210922" y="36.84606296115999" width="42.650954067890325" height="74.15393703883956" rx="0" ry="0"><defs><pattern patternUnits="objectBoundingBox" width="21.666671752929688" height="17.600006103515625" id="fill-0-render-2-0"><g><rect width="21.666671752929688" height="17.600006103515625" style="fill: rgb(0, 0, 0); fill-opacity: 1;"/></g></pattern></defs><g class="fills" id="fills-5dba797b-a430-8051-8005-fb7bf149a60b"><text x="115.34904593210922" y="82.71273166233186" dominant-baseline="ideographic" textLength="21.666671752929688" lengthAdjust="spacingAndGlyphs" style="text-transform: none; font-family: Chewy; letter-spacing: 3px; font-style: normal; font-weight: 400; white-space: pre; font-size: 14px; text-decoration: rgb(0, 0, 0); direction: ltr; fill: rgb(0, 0, 0); fill-opacity: 1;">.nl</text></g></g></g><g id="shape-5dba797b-a430-8051-8005-fb7bf149a60c"><defs><radialGradient id="fill-color-gradient-render-3-0" cx="0.5" cy="0.5" r="0.5" gradientTransform="matrix(-0.981051, 0.047145, 0.047260, -0.882418, 0.966896, 0.917637)"><stop offset="0" stop-color="#6c92f6" stop-opacity="1"/><stop offset="1" stop-color="#124983" stop-opacity="0"/></radialGradient><pattern patternUnits="userSpaceOnUse" x="14.255019675010772" y="6.861601367243566" width="53.69954575931888" height="86.79055998911645" patternTransform="matrix(0.928171, -0.372154, 0.372935, 0.927858, -15.790027, 18.922955)" id="fill-0-render-3"><g><rect width="53.69954575931888" height="86.79055998911645" style="fill: url(&quot;#fill-color-gradient-render-3-0&quot;);"/></g></pattern></defs><g class="fills" id="fills-5dba797b-a430-8051-8005-fb7bf149a60c"><path d="M38.399169921875,97.9677734375C41.7659912109375,94.1923828125,42.61865234375,78.085205078125,32.1153564453125,64.105712890625C21.6121826171875,50.1259765625,52.070068359375,92.486328125,55.017333984375,87.66650390625C57.96435546875,82.8466796875,58.613525390625,57.119384765625,54.831298828125,53.784912109375C54.831298828125,53.784912109375,73.522216796875,85.097900390625,75.205810546875,83.2099609375C76.88916015625,81.322265625,78.165771484375,60.1943359375,64.51220703125,41.414306640625C50.8583984375,22.63427734375,47.0673828125,31.4306640625,47.0673828125,31.4306640625C47.0673828125,31.4306640625,41.5843505859375,54.245361328125,44.73486328125,59.0458984375C47.8853759765625,63.84619140625,26.8746337890625,41.952392578125,26.8746337890625,41.952392578125C26.8746337890625,41.952392578125,15.9473876953125,32.993896484375,17.1937255859375,54.3232421875C18.4400634765625,75.65234375,35.0322265625,101.7431640625,38.399169921875,97.9677734375M9.2308349609375,16.283447265625M54.831298828125,53.784912109375C51.048828125,50.45068359375,73.1025390625,84.053466796875,75.205810546875,83.2099609375" fill="url(#fill-0-render-3)"/></g><g id="strokes-7240be7a-efe8-8037-8006-7c47c02e7ac2-5dba797b-a430-8051-8005-fb7bf149a60c" class="strokes"><g class="stroke-shape"><path d="M38.399169921875,97.9677734375C41.7659912109375,94.1923828125,42.61865234375,78.085205078125,32.1153564453125,64.105712890625C21.6121826171875,50.1259765625,52.070068359375,92.486328125,55.017333984375,87.66650390625C57.96435546875,82.8466796875,58.613525390625,57.119384765625,54.831298828125,53.784912109375C54.831298828125,53.784912109375,73.522216796875,85.097900390625,75.205810546875,83.2099609375C76.88916015625,81.322265625,78.165771484375,60.1943359375,64.51220703125,41.414306640625C50.8583984375,22.63427734375,47.0673828125,31.4306640625,47.0673828125,31.4306640625C47.0673828125,31.4306640625,41.5843505859375,54.245361328125,44.73486328125,59.0458984375C47.8853759765625,63.84619140625,26.8746337890625,41.952392578125,26.8746337890625,41.952392578125C26.8746337890625,41.952392578125,15.9473876953125,32.993896484375,17.1937255859375,54.3232421875C18.4400634765625,75.65234375,35.0322265625,101.7431640625,38.399169921875,97.9677734375M9.2308349609375,16.283447265625M54.831298828125,53.784912109375C51.048828125,50.45068359375,73.1025390625,84.053466796875,75.205810546875,83.2099609375" style="fill: none; stroke-width: 1; stroke: rgb(0, 0, 0); stroke-opacity: 1;"/></g></g></g><g id="shape-5dba797b-a430-8051-8005-fb7bf149f3c8"><defs><radialGradient id="fill-color-gradient-render-4-0" cx="0.2732658149695128" cy="0.22422095404425096" r="0.8082335793602313" gradientTransform="matrix(-0.959845, 0.280531, -0.280531, -0.959845, 0.598459, 0.362779)"><stop offset="0" stop-color="#6c92f6" stop-opacity="1"/><stop offset="1" stop-color="#124983" stop-opacity="0"/></radialGradient><pattern patternUnits="userSpaceOnUse" x="61.64043710587703" y="22.646372889892973" width="25.274639447638947" height="50.4877869200609" patternTransform="matrix(1.000000, 0.000000, 0.000000, 1.000000, 0.000000, 0.000000)" id="fill-0-render-4"><g><rect width="25.274639447638947" height="50.4877869200609" style="fill: url(&quot;#fill-color-gradient-render-4-0&quot;);"/></g></pattern></defs><g class="fills" id="fills-5dba797b-a430-8051-8005-fb7bf149f3c8"><path d="M66.87646484375,35.577392578125C66.87646484375,35.577392578125,53.8876953125,52.026611328125,68.824951171875,46.762939453125C83.761962890625,41.4990234375,66.87646484375,72.423583984375,66.87646484375,72.423583984375C66.87646484375,72.423583984375,78.56640625,74.3974609375,79.865478515625,71.765625C81.164306640625,69.1337890625,92.204833984375,45.447021484375,83.761962890625,42.81494140625C75.3193359375,40.18310546875,74.0205078125,42.156982421875,74.0205078125,42.156982421875C74.0205078125,42.156982421875,86.35986328125,25.7080078125,85.71044921875,23.734130859375C85.06103515625,21.76025390625,72.072021484375,23.076171875,72.072021484375,23.076171875L66.87646484375,35.577392578125" fill="url(#fill-0-render-4)"/></g><g id="strokes-7240be7a-efe8-8037-8006-7c47c02f1f8a-5dba797b-a430-8051-8005-fb7bf149f3c8" class="strokes"><g class="inner-stroke-shape"><defs><clipPath id="inner-stroke-render-4-5dba797b-a430-8051-8005-fb7bf149f3c8-0"><use href="#stroke-shape-render-4-5dba797b-a430-8051-8005-fb7bf149f3c8-0"/></clipPath><path d="M66.87646484375,35.577392578125C66.87646484375,35.577392578125,53.8876953125,52.026611328125,68.824951171875,46.762939453125C83.761962890625,41.4990234375,66.87646484375,72.423583984375,66.87646484375,72.423583984375C66.87646484375,72.423583984375,78.56640625,74.3974609375,79.865478515625,71.765625C81.164306640625,69.1337890625,92.204833984375,45.447021484375,83.761962890625,42.81494140625C75.3193359375,40.18310546875,74.0205078125,42.156982421875,74.0205078125,42.156982421875C74.0205078125,42.156982421875,86.35986328125,25.7080078125,85.71044921875,23.734130859375C85.06103515625,21.76025390625,72.072021484375,23.076171875,72.072021484375,23.076171875L66.87646484375,35.577392578125" id="stroke-shape-render-4-5dba797b-a430-8051-8005-fb7bf149f3c8-0" style="fill: none; stroke-width: 2; stroke: rgb(0, 0, 0); stroke-opacity: 1;"/></defs><use href="#stroke-shape-render-4-5dba797b-a430-8051-8005-fb7bf149f3c8-0" clip-path="url('#inner-stroke-render-4-5dba797b-a430-8051-8005-fb7bf149f3c8-0')"/></g></g></g><g id="shape-5dba797b-a430-8051-8005-fb7bf149f3c9"><g class="fills" id="fills-5dba797b-a430-8051-8005-fb7bf149f3c9"><path d="M96.39306640625,76.28955078125"/></g><g id="strokes-7240be7a-efe8-8037-8006-7c47c02fd011-5dba797b-a430-8051-8005-fb7bf149f3c9" class="strokes"><g class="inner-stroke-shape"><defs><clipPath id="inner-stroke-render-5-5dba797b-a430-8051-8005-fb7bf149f3c9-0"><use href="#stroke-shape-render-5-5dba797b-a430-8051-8005-fb7bf149f3c9-0"/></clipPath><path d="M96.39306640625,76.28955078125" id="stroke-shape-render-5-5dba797b-a430-8051-8005-fb7bf149f3c9-0" style="fill: none; stroke-width: 4; stroke: rgb(0, 0, 0); stroke-opacity: 1;"/></defs><use href="#stroke-shape-render-5-5dba797b-a430-8051-8005-fb7bf149f3c9-0" clip-path="url('#inner-stroke-render-5-5dba797b-a430-8051-8005-fb7bf149f3c9-0')"/></g></g></g><g id="shape-5dba797b-a430-8051-8005-fb7bf149f3ca"><defs><radialGradient id="fill-color-gradient-render-6-0" cx="0.5" cy="0.5" r="0.5" gradientTransform="matrix(-0.988063, -0.032068, -0.032146, -0.913645, 1.010104, 0.972856)"><stop offset="0" stop-color="#6c92f6" stop-opacity="1"/><stop offset="1" stop-color="#124983" stop-opacity="0"/></radialGradient><pattern patternUnits="userSpaceOnUse" x="79.76720122859297" y="20.877930968101737" width="26.850339133301077" height="54.39636837879607" patternTransform="matrix(0.937450, 0.348121, -0.348866, 0.937173, 22.601331, -29.421694)" id="fill-0-render-6"><g><rect width="26.850339133301077" height="54.39636837879607" style="fill: url(&quot;#fill-color-gradient-render-6-0&quot;);"/></g></pattern></defs><g class="fills" id="fills-5dba797b-a430-8051-8005-fb7bf149f3ca"><path d="M88.810302734375,48.529541015625L83.513916015625,71.811767578125L78.521728515625,71.64111328125L88.18408203125,23.048095703125C88.18408203125,23.048095703125,104.26220703125,20.602294921875,110.564453125,26.30908203125C116.86669921875,32.015869140625,101.547607421875,41.4765625,101.547607421875,41.4765625C101.547607421875,41.4765625,92.11328125,39.656494140625,93.802734375,48.7001953125C95.4921875,57.743896484375,97.390380859375,75.281494140625,97.390380859375,75.281494140625L88.50634765625,71.982421875L88.810302734375,48.529541015625L88.50634765625,71.982421875" fill="url(#fill-0-render-6)"/></g><g id="strokes-7240be7a-efe8-8037-8006-7c47c0304739-5dba797b-a430-8051-8005-fb7bf149f3ca" class="strokes"><g class="stroke-shape"><path d="M88.810302734375,48.529541015625L83.513916015625,71.811767578125L78.521728515625,71.64111328125L88.18408203125,23.048095703125C88.18408203125,23.048095703125,104.26220703125,20.602294921875,110.564453125,26.30908203125C116.86669921875,32.015869140625,101.547607421875,41.4765625,101.547607421875,41.4765625C101.547607421875,41.4765625,92.11328125,39.656494140625,93.802734375,48.7001953125C95.4921875,57.743896484375,97.390380859375,75.281494140625,97.390380859375,75.281494140625L88.50634765625,71.982421875L88.810302734375,48.529541015625L88.50634765625,71.982421875" style="fill: none; stroke-width: 1; stroke: rgb(0, 0, 0); stroke-opacity: 1;"/></g></g></g><g id="shape-5dba797b-a430-8051-8005-fb7bf149f3cb"><defs><radialGradient id="fill-color-gradient-render-7-0" cx="0.5" cy="0.5" r="0.5" gradientTransform="matrix(-1.000000, 0.000000, -0.000000, -1.000000, 1.000000, 1.000000)"><stop offset="0" stop-color="#6c92f6" stop-opacity="1"/><stop offset="1" stop-color="#124983" stop-opacity="0"/></radialGradient><pattern patternUnits="userSpaceOnUse" x="91.65407144994788" y="32.11283293740462" width="47.38994896432314" height="52.06553026131314" patternTransform="matrix(1.000000, 0.000000, 0.000000, 1.000000, 0.000000, 0.000000)" id="fill-0-render-7"><g><rect width="47.38994896432314" height="52.06553026131314" style="fill: url(&quot;#fill-color-gradient-render-7-0&quot;);"/></g></pattern></defs><g class="fills" id="fills-5dba797b-a430-8051-8005-fb7bf149f3cb"><path d="M95.218994140625,80.640380859375L110.666748046875,47.618408203125C110.666748046875,47.618408203125,95.218994140625,34.6455078125,98.783935546875,32.286865234375C102.3486328125,29.927978515625,136.809326171875,52.335693359375,136.809326171875,52.335693359375C136.809326171875,52.335693359375,146.315673828125,60.59130859375,126.11474609375,55.873779296875C105.91357421875,51.156494140625,104.725341796875,84.178466796875,104.725341796875,84.178466796875L95.218994140625,80.640380859375" fill="url(#fill-0-render-7)"/></g><g id="strokes-7240be7a-efe8-8037-8006-7c47c030f7e2-5dba797b-a430-8051-8005-fb7bf149f3cb" class="strokes"><g class="inner-stroke-shape"><defs><clipPath id="inner-stroke-render-7-5dba797b-a430-8051-8005-fb7bf149f3cb-0"><use href="#stroke-shape-render-7-5dba797b-a430-8051-8005-fb7bf149f3cb-0"/></clipPath><path d="M95.218994140625,80.640380859375L110.666748046875,47.618408203125C110.666748046875,47.618408203125,95.218994140625,34.6455078125,98.783935546875,32.286865234375C102.3486328125,29.927978515625,136.809326171875,52.335693359375,136.809326171875,52.335693359375C136.809326171875,52.335693359375,146.315673828125,60.59130859375,126.11474609375,55.873779296875C105.91357421875,51.156494140625,104.725341796875,84.178466796875,104.725341796875,84.178466796875L95.218994140625,80.640380859375" id="stroke-shape-render-7-5dba797b-a430-8051-8005-fb7bf149f3cb-0" style="fill: none; stroke-width: 2; stroke: rgb(0, 0, 0); stroke-opacity: 1;"/></defs><use href="#stroke-shape-render-7-5dba797b-a430-8051-8005-fb7bf149f3cb-0" clip-path="url('#inner-stroke-render-7-5dba797b-a430-8051-8005-fb7bf149f3cb-0')"/></g></g></g></g></g></g></g></g></g></svg>