<svg width="3392" xmlns="http://www.w3.org/2000/svg" height="3380" id="screenshot-5dba797b-a430-8051-8005-fb7124dbbd7c" viewBox="0 0 3392 3380" xmlns:xlink="http://www.w3.org/1999/xlink" fill="none" version="1.1"><g id="shape-5dba797b-a430-8051-8005-fb7124dbbd7c" width="316" height="315" rx="0" ry="0" style="fill: rgb(0, 0, 0);"><g id="shape-5dba797b-a430-8051-8005-fb7124df046f" style="display: none;"><g class="fills" id="fills-5dba797b-a430-8051-8005-fb7124df046f"><rect width="3392.000000000001" height="3380.000000000001" x="0" transform="matrix(1.000000, 0.000000, 0.000000, 1.000000, 0.000000, 0.000000)" style="fill: rgb(79, 112, 200); fill-opacity: 1;" ry="0" fill="none" rx="0" y="0"/></g></g><g id="shape-5dba797b-a430-8051-8005-fb7124e1fffe"><g class="fills" id="fills-5dba797b-a430-8051-8005-fb7124e1fffe"><path d="M1567.2220458984375,70.47235107421875C1627.623291015625,-22.9759521484375,1764.376708984375,-22.9759521484375,1824.7779541015625,70.47235107421875L1824.7779541015625,70.47235107421875C1874.8206787109375,147.899169921875,1981.4217529296875,163.96112060546875,2052.07421875,104.7196044921875L2052.07421875,104.7196044921875C2137.346435546875,33.21929931640625,2268.013671875,73.51104736328125,2298.1767578125,180.60357666015625L2298.1767578125,180.60357666015625C2323.165771484375,269.336669921875,2420.29931640625,316.095458984375,2505.28173828125,280.3028564453125L2505.28173828125,280.3028564453125C2607.846923828125,237.103271484375,2720.8349609375,314.107177734375,2718.076171875,425.3284912109375L2718.076171875,425.3284912109375C2715.789794921875,517.4822998046875,2794.82568359375,590.7843017578125,2886.581298828125,581.6207275390625L2886.581298828125,581.6207275390625C2997.32568359375,570.56005859375,3082.58740234375,677.43359375,3047.15380859375,782.9013671875L3047.15380859375,782.9013671875C3017.7958984375,870.2877197265625,3071.702880859375,963.61865234375,3162.095458984375,981.8985595703125L3162.095458984375,981.8985595703125C3271.176025390625,1003.9619140625,3321.133056640625,1131.20556640625,3256.180419921875,1221.553466796875L3256.180419921875,1221.553466796875C3202.359375,1296.406982421875,3226.35009765625,1401.476806640625,3307.328857421875,1445.56689453125L3307.328857421875,1445.56689453125C3405.0634765625,1498.79931640625,3415.282470703125,1635.115234375,3326.5751953125,1702.296875L3326.5751953125,1702.296875C3253.078369140625,1757.9755859375,3245.027587890625,1865.43798828125,3309.400390625,1931.439208984375L3309.400390625,1931.439208984375C3387.105224609375,2011.10009765625,3356.673828125,2144.36865234375,3252.0908203125,2182.439208984375L3252.0908203125,2182.439208984375C3165.4443359375,2213.97509765625,3126.050048828125,2314.291259765625,3168.1064453125,2396.334228515625L3168.1064453125,2396.334228515625C3218.868408203125,2495.34130859375,3150.50244140625,2613.727294921875,3039.33935546875,2619.285400390625L3039.33935546875,2619.285400390625C2947.240234375,2623.8994140625,2880.022705078125,2708.152587890625,2896.0166015625,2798.9404296875L2896.0166015625,2798.9404296875C2915.327392578125,2908.506103515625,2815.0810546875,3001.48291015625,2707.223876953125,2974.0458984375L2707.223876953125,2974.0458984375C2617.85107421875,2951.3193359375,2528.77880859375,3012.03076171875,2517.30419921875,3103.49462890625L2517.30419921875,3103.49462890625C2503.4462890625,3213.886474609375,2380.2392578125,3273.19189453125,2285.263427734375,3215.195556640625L2285.263427734375,3215.195556640625C2206.560546875,3167.135009765625,2103.54443359375,3198.9072265625,2065.59912109375,3282.92431640625L2065.59912109375,3282.92431640625C2019.80712890625,3384.32421875,1884.5887451171875,3404.70068359375,1810.930908203125,3321.29541015625L1810.930908203125,3321.29541015625C1749.906982421875,3252.193115234375,1642.093017578125,3252.193115234375,1581.069091796875,3321.29541015625L1581.069091796875,3321.29541015625C1507.4112548828125,3404.70068359375,1372.19287109375,3384.32421875,1326.40087890625,3282.92431640625L1326.40087890625,3282.92431640625C1288.45556640625,3198.9072265625,1185.4395751953125,3167.135009765625,1106.736572265625,3215.195556640625L1106.736572265625,3215.195556640625C1011.7627563476562,3273.19189453125,888.5579833984375,3213.886474609375,874.7012939453125,3103.49462890625L874.7012939453125,3103.49462890625C863.219970703125,3012.03076171875,774.1434936523438,2951.3193359375,684.7750244140625,2974.0458984375L684.7750244140625,2974.0458984375C576.914794921875,3001.48291015625,476.672607421875,2908.506103515625,495.9812316894531,2798.9404296875L495.9812316894531,2798.9404296875C511.9794616699219,2708.152587890625,444.76202392578125,2623.8994140625,352.66064453125,2619.285400390625L352.66064453125,2619.285400390625C241.50286865234375,2613.727294921875,173.12939453125,2495.34130859375,223.88812255859375,2396.334228515625L223.88812255859375,2396.334228515625C265.9456787109375,2314.291259765625,226.55767822265625,2213.97509765625,139.908203125,2182.439208984375L139.908203125,2182.439208984375C35.32855224609375,2144.36865234375,4.8994140625,2011.10009765625,82.598876953125,1931.439208984375L82.598876953125,1931.439208984375C146.97662353515625,1865.43798828125,138.920654296875,1757.9755859375,65.42071533203125,1702.296875L65.42071533203125,1702.296875C-23.2874755859375,1635.115234375,-13.06829833984375,1498.79931640625,84.6671142578125,1445.56689453125L84.6671142578125,1445.56689453125C165.6466064453125,1401.476806640625,189.63641357421875,1296.406982421875,135.8173828125,1221.553466796875L135.8173828125,1221.553466796875C70.86273193359375,1131.20556640625,120.82177734375,1003.9619140625,229.90997314453125,981.8985595703125L229.90997314453125,981.8985595703125C320.29388427734375,963.61865234375,374.19879150390625,870.2877197265625,344.84405517578125,782.9013671875L344.84405517578125,782.9013671875C309.41375732421875,677.43359375,394.67425537109375,570.56005859375,505.4197998046875,581.6207275390625L505.4197998046875,581.6207275390625C597.1798095703125,590.7843017578125,676.210205078125,517.4822998046875,673.926025390625,425.3284912109375L673.926025390625,425.3284912109375C671.1683959960938,314.107177734375,784.1541748046875,237.103271484375,886.71923828125,280.3028564453125L886.71923828125,280.3028564453125C971.70068359375,316.095458984375,1068.8331298828125,269.336669921875,1093.8233642578125,180.60357666015625L1093.8233642578125,180.60357666015625C1123.9864501953125,73.51104736328125,1254.653564453125,33.21929931640625,1339.9259033203125,104.7196044921875L1339.9259033203125,104.7196044921875C1410.5782470703125,163.96112060546875,1517.1793212890625,147.899169921875,1567.2220458984375,70.47235107421875L1567.2220458984375,70.47235107421875Z" style="fill: rgb(79, 112, 200); fill-opacity: 1;"/></g></g></g></svg>